<?xml version="1.0" encoding="utf-8"?>
<svg viewBox="0 0 500 500" xmlns="http://www.w3.org/2000/svg" xmlns:bx="https://boxy-svg.com">
  <rect x="7.481" y="245.011" width="256.235" height="12.469" style="stroke: rgb(106, 168, 79); fill: rgb(106, 168, 79);" rx="6.234" ry="6.234"/>
  <path d="M 242.518 182.322 L 282.418 284.566 L 202.618 284.566 L 242.518 182.322 Z" style="fill: rgb(106, 168, 79); stroke: rgb(106, 168, 79);" bx:shape="triangle 202.618 182.322 79.8 102.244 0.5 0 1@0a72d9ad"/>
  <path d="M 242.519 205.39 L 282.419 307.634 L 202.619 307.634 L 242.519 205.39 Z" style="fill: rgb(255, 255, 255); stroke: rgb(255, 255, 255);" bx:shape="triangle 202.619 205.39 79.8 102.244 0.5 0 1@5d25b2f7"/>
  <path d="M 302.681 111.25 L 329.8 284.566 L 275.561 284.566 L 302.681 111.25 Z" style="fill: rgb(106, 168, 79); stroke: rgb(106, 168, 79);" bx:shape="triangle 275.561 111.25 54.239 173.316 0.5 0 1@71f9df31"/>
  <path d="M 335.139 -366.387 L 362.258 -200.551 L 308.019 -200.551 L 335.139 -366.387 Z" style="fill: rgb(106, 168, 79); stroke: rgb(106, 168, 79);" transform="matrix(1, 0, 0, -1, 0, 0)" bx:shape="triangle 308.019 -366.387 54.239 165.836 0.5 0 1@b4b83477"/>
  <path d="M 400.887 195.379 L 426.245 257.554 L 375.529 257.554 L 400.887 195.379 Z" style="fill: rgb(106, 168, 79); stroke: rgb(106, 168, 79);" bx:shape="triangle 375.529 195.379 50.716 62.175 0.5 0 1@bc3f1800"/>
  <rect x="413.34" y="245.315" width="82.809" height="12.469" style="stroke: rgb(106, 168, 79); fill: rgb(106, 168, 79);" rx="6.234" ry="6.234"/>
  <path d="M 302.329 166.787 L 329.448 340.103 L 275.209 340.103 L 302.329 166.787 Z" style="fill: rgb(255, 255, 255); stroke: rgb(255, 255, 255);" bx:shape="triangle 275.209 166.787 54.239 173.316 0.5 0 1@3ddc2fce"/>
  <path d="M 335.368 -325.544 L 359.976 -159.708 L 310.76 -159.708 L 335.368 -325.544 Z" style="stroke: rgb(255, 255, 255); fill: rgb(255, 255, 255);" transform="matrix(1, 0, 0, -1, 0, 0)" bx:shape="triangle 310.76 -325.544 49.216 165.836 0.5 0 1@b6accd93"/>
  <path d="M 421.309 -243.253 L 448.428 -182.083 L 394.189 -182.083 L 421.309 -243.253 Z" style="fill: rgb(255, 255, 255); stroke: rgb(255, 255, 255);" transform="matrix(1, 0, 0, -1, 0, 0)" bx:shape="triangle 394.189 -243.253 54.239 61.17 0.5 0 1@5f74d25d"/>
  <path d="M 404.393 221.322 L 419.275 292.268 L 389.511 292.268 L 404.393 221.322 Z" style="fill: rgb(255, 255, 255); stroke: rgb(255, 255, 255);" bx:shape="triangle 389.511 221.322 29.764 70.946 0.5 0 1@8cb9de5b"/>
  <path d="M 401.993 215.716 L 446.897 323.566 L 357.089 323.566 L 401.993 215.716 Z" style="fill: rgb(255, 255, 255); stroke: rgb(255, 255, 255);" bx:shape="triangle 357.089 215.716 89.808 107.85 0.5 0 1@81904f1b"/>
  <path d="M 382.52 -314.254 L 409.639 -200.164 L 355.4 -200.164 L 382.52 -314.254 Z" style="fill: rgb(106, 168, 79); stroke: rgb(106, 168, 79);" transform="matrix(1, 0, 0, -1, 0, 0)" bx:shape="triangle 355.4 -314.254 54.239 114.09 0.5 0 1@e4285f4e"/>
  <path d="M 382.317 -285.76 L 409.436 -171.67 L 355.197 -171.67 L 382.317 -285.76 Z" style="fill: rgb(255, 255, 255); stroke: rgb(255, 255, 255);" transform="matrix(1, 0, 0, -1, 0, 0)" bx:shape="triangle 355.197 -285.76 54.239 114.09 0.5 0 1@ae7e0fd8"/>
  <rect x="142.931" y="258.472" width="103.675" height="97.74" style="fill: rgb(255, 255, 255); stroke: rgb(255, 255, 255);"/>
  <path d="M 420.92 -241.994 L 465.824 -143.18 L 376.016 -143.18 L 420.92 -241.994 Z" style="fill: rgb(255, 255, 255); stroke: rgb(255, 255, 255);" transform="matrix(1, 0, 0, -1, 0, 0)" bx:shape="triangle 376.016 -241.994 89.808 98.814 0.5 0 1@dd708eef"/>
  <path d="M 278.691 -295.074 L 282.605 -285.284 L 274.776 -285.284 L 278.691 -295.074 Z" style="stroke: rgb(106, 168, 79); fill: rgb(106, 168, 79);" transform="matrix(1, 0, 0, -1, 0, 0)" bx:shape="triangle 274.776 -295.074 7.829 9.79 0.5 0 1@f121dd19"/>
  <path d="M 281.681 -296.369 L 283.991 -273.625 L 279.37 -273.625 L 281.681 -296.369 Z" style="stroke: rgb(106, 168, 79); fill: rgb(106, 168, 79);" transform="matrix(1, 0, 0, -1, 0, 0)" bx:shape="triangle 279.37 -296.369 4.621 22.744 0.5 0 1@a96c6c9f"/>
  <path d="M 279.808 -298.431 L 282.118 -290.633 L 277.497 -290.633 L 279.808 -298.431 Z" style="stroke: rgb(106, 168, 79); fill: rgb(106, 168, 79);" transform="matrix(1, 0, 0, -1, 0, 0)" bx:shape="triangle 277.497 -298.431 4.621 7.798 0.5 0 1@9d7e40fb"/>
  <path d="M 280.727 -306.344 L 283.037 -283.6 L 278.416 -283.6 L 280.727 -306.344 Z" style="stroke: rgb(106, 168, 79); fill: rgb(106, 168, 79);" transform="matrix(1, 0, 0, -1, 0, 0)" bx:shape="triangle 278.416 -306.344 4.621 22.744 0.5 0 1@a141a711"/>
  <path d="M 264.32 260.997 L 304.22 363.241 L 224.42 363.241 L 264.32 260.997 Z" style="fill: rgb(255, 255, 255); stroke: rgb(255, 255, 255);" bx:shape="triangle 224.42 260.997 79.8 102.244 0.5 0 1@ff57efc6"/>
  <path d="M 320.765 -220.913 L 339.198 -109.238 L 302.331 -109.238 L 320.765 -220.913 Z" style="fill: rgb(255, 255, 255); stroke: rgb(255, 255, 255);" transform="matrix(1, 0, 0, -1, 0, 0)" bx:shape="triangle 302.331 -220.913 36.867 111.675 0.5 0 1@97f7b331"/>
  <path d="M 356.101 192.279 L 358.288 207.672 L 353.913 207.672 L 356.101 192.279 Z" style="fill: rgb(106, 168, 79); stroke: rgb(106, 168, 79);" bx:shape="triangle 353.913 192.279 4.375 15.393 0.5 0 1@7a907309"/>
  <path d="M 359.477 193.456 L 362.791 208.849 L 356.162 208.849 L 359.477 193.456 Z" style="fill: rgb(106, 168, 79); stroke: rgb(106, 168, 79);" bx:shape="triangle 356.162 193.456 6.629 15.393 0.5 0 1@73ce65cd"/>
  <path d="M 357.816 183.831 L 361.13 199.224 L 354.501 199.224 L 357.816 183.831 Z" style="fill: rgb(106, 168, 79); stroke: rgb(106, 168, 79);" bx:shape="triangle 354.501 183.831 6.629 15.393 0.5 0 1@12e83abb"/>
  <path d="M 346.496 -246.373 L 364.929 -134.698 L 328.062 -134.698 L 346.496 -246.373 Z" style="fill: rgb(255, 255, 255); stroke: rgb(255, 255, 255);" transform="matrix(1, 0, 0, -1, 0, 0)" bx:shape="triangle 328.062 -246.373 36.867 111.675 0.5 0 1@942b4df7"/>
  <path d="M 374.864 -254.601 L 401.983 -140.511 L 347.744 -140.511 L 374.864 -254.601 Z" style="fill: rgb(255, 255, 255); stroke: rgb(255, 255, 255);" transform="matrix(1, 0, 0, -1, 0, 0)" bx:shape="triangle 347.744 -254.601 54.239 114.09 0.5 0 1@f8196f03"/>
</svg>